<svg width="22" height="22" viewBox="0 0 22 22" fill="none" xmlns="http://www.w3.org/2000/svg">
<path d="M10.9995 0C17.0744 0 21.9989 4.92445 21.9989 10.9994C21.9989 17.0744 17.0744 21.9989 10.9995 21.9989C9.24393 22.0013 7.51353 21.5818 5.95401 20.7758L1.74562 21.9494C1.51083 22.0149 1.26284 22.0168 1.02705 21.955C0.791272 21.8931 0.576177 21.7697 0.403809 21.5973C0.231442 21.4249 0.107998 21.2098 0.0461267 20.974C-0.0157445 20.7383 -0.0138187 20.4903 0.0517066 20.2555L1.22645 16.0504C0.418375 14.4895 -0.00227557 12.7571 9.25817e-06 10.9994C9.25817e-06 4.92445 4.92446 0 10.9995 0ZM10.9995 1.64992C8.51981 1.64992 6.14172 2.63495 4.38834 4.38833C2.63496 6.14171 1.64993 8.5198 1.64993 10.9994C1.64993 12.6164 2.06021 14.1706 2.83017 15.5499L2.99516 15.8469L1.77202 20.2291L6.1575 19.0059L6.45448 19.1709C7.70224 19.8647 9.0923 20.2634 10.5181 20.3367C11.9438 20.4099 13.3674 20.1557 14.6797 19.5934C15.992 19.0312 17.158 18.1759 18.0885 17.0931C19.019 16.0104 19.6892 14.7289 20.0477 13.347C20.4061 11.9651 20.4434 10.5195 20.1565 9.12095C19.8697 7.72242 19.2664 6.40815 18.3929 5.27893C17.5194 4.1497 16.3989 3.23551 15.1173 2.60645C13.8357 1.9774 12.4271 1.65019 10.9995 1.64992ZM10.9995 14.8493C11.2912 14.8493 11.571 14.9651 11.7772 15.1714C11.9835 15.3777 12.0994 15.6575 12.0994 15.9492C12.0994 16.2409 11.9835 16.5207 11.7772 16.727C11.571 16.9333 11.2912 17.0491 10.9995 17.0491C10.7077 17.0491 10.428 16.9333 10.2217 16.727C10.0154 16.5207 9.89951 16.2409 9.89951 15.9492C9.89951 15.6575 10.0154 15.3777 10.2217 15.1714C10.428 14.9651 10.7077 14.8493 10.9995 14.8493ZM10.9995 5.22474C11.8017 5.22474 12.5711 5.54343 13.1383 6.11069C13.7056 6.67796 14.0243 7.44734 14.0243 8.24958C14.0243 9.36053 13.6976 9.9809 12.8683 10.8444L12.6824 11.0324C11.9982 11.7166 11.8244 12.007 11.8244 12.6494C11.8244 12.8682 11.7375 13.078 11.5828 13.2327C11.4281 13.3874 11.2182 13.4743 10.9995 13.4743C10.7807 13.4743 10.5708 13.3874 10.4161 13.2327C10.2614 13.078 10.1745 12.8682 10.1745 12.6494C10.1745 11.5384 10.5012 10.918 11.3305 10.0546L11.5164 9.8665C12.2006 9.18234 12.3744 8.89195 12.3744 8.24958C12.3732 7.89791 12.2374 7.56003 11.9948 7.30545C11.7521 7.05087 11.4212 6.89894 11.07 6.88091C10.7187 6.86287 10.374 6.98011 10.1065 7.2085C9.83912 7.43689 9.66937 7.75908 9.63222 8.10879L9.62453 8.24958C9.62453 8.46838 9.53761 8.67821 9.3829 8.83292C9.22819 8.98763 9.01836 9.07454 8.79957 9.07454C8.58077 9.07454 8.37094 8.98763 8.21623 8.83292C8.06152 8.67821 7.97461 8.46838 7.97461 8.24958C7.97461 7.44734 8.2933 6.67796 8.86057 6.11069C9.42783 5.54343 10.1972 5.22474 10.9995 5.22474Z" fill="white"/>
</svg>
