<svg width="24" height="20" viewBox="0 0 24 20" fill="none" xmlns="http://www.w3.org/2000/svg">
<path d="M22.1092 10.2444C22.1092 4.14445 17.3758 0 12.1092 0C6.89805 0 2.10916 4.05556 2.10916 10.3111C1.44249 10.6889 0.998047 11.4 0.998047 12.2222V14.4444C0.998047 15.6667 1.99805 16.6667 3.22027 16.6667H4.33138V9.88889C4.33138 5.58889 7.80916 2.11111 12.1092 2.11111C16.4092 2.11111 19.8869 5.58889 19.8869 9.88889V17.7778H10.998V20H19.8869C21.1092 20 22.1092 19 22.1092 17.7778V16.4222C22.7647 16.0778 23.2203 15.4 23.2203 14.6V12.0444C23.2203 11.2667 22.7647 10.5889 22.1092 10.2444Z" fill="white"/>
<path d="M8.77713 12.2222C9.39078 12.2222 9.88824 11.7248 9.88824 11.1111C9.88824 10.4975 9.39078 10 8.77713 10C8.16348 10 7.66602 10.4975 7.66602 11.1111C7.66602 11.7248 8.16348 12.2222 8.77713 12.2222Z" fill="white"/>
<path d="M15.4431 12.2222C16.0568 12.2222 16.5543 11.7248 16.5543 11.1111C16.5543 10.4975 16.0568 10 15.4431 10C14.8295 10 14.332 10.4975 14.332 11.1111C14.332 11.7248 14.8295 12.2222 15.4431 12.2222Z" fill="white"/>
<path d="M18.7746 8.92287C18.5097 7.3608 17.7006 5.94283 16.4907 4.91996C15.2807 3.89709 13.7479 3.33528 12.1635 3.33398C8.79682 3.33398 5.1746 6.12287 5.46349 10.5007C6.83364 9.93997 8.04376 9.04897 8.98596 7.90708C9.92817 6.76519 10.5732 5.40789 10.8635 3.95621C12.319 6.87843 15.3079 8.88954 18.7746 8.92287Z" fill="white"/>
</svg>
