<svg width="17" height="17" viewBox="0 0 17 17" fill="none" xmlns="http://www.w3.org/2000/svg">
<path fill-rule="evenodd" clip-rule="evenodd" d="M11.8307 10.088C11.632 9.98868 10.658 9.51001 10.4767 9.44335C10.2954 9.37735 10.1634 9.34468 10.0307 9.54335C9.89869 9.74068 9.51935 10.1873 9.40402 10.3193C9.28802 10.452 9.17269 10.468 8.97469 10.3693C8.77669 10.2693 8.13802 10.0607 7.38136 9.38601C6.79269 8.86068 6.39469 8.21202 6.27936 8.01335C6.16403 7.81535 6.26669 7.70801 6.36603 7.60935C6.45536 7.52068 6.56403 7.37802 6.66336 7.26268C6.76269 7.14668 6.79536 7.06402 6.86136 6.93135C6.92803 6.79935 6.89469 6.68402 6.84469 6.58468C6.79536 6.48535 6.39936 5.51002 6.23403 5.11335C6.07336 4.72735 5.91003 4.78002 5.78869 4.77335C5.67269 4.76802 5.54069 4.76669 5.40869 4.76669C5.27669 4.76669 5.06203 4.81602 4.8807 5.01469C4.6987 5.21269 4.18736 5.69202 4.18736 6.66735C4.18736 7.64202 4.8967 8.58401 4.99603 8.71668C5.09536 8.84868 6.39269 10.85 8.38002 11.708C8.85336 11.912 9.22202 12.034 9.50935 12.1247C9.98402 12.276 10.416 12.2547 10.7574 12.2033C11.1374 12.1467 11.9294 11.724 12.0947 11.2613C12.2593 10.7987 12.2593 10.402 12.21 10.3193C12.1607 10.2367 12.0294 10.1873 11.8307 10.088ZM8.21602 15.0233H8.21336C7.03298 15.0236 5.87427 14.7062 4.8587 14.1047L4.6187 13.962L2.12403 14.6167L2.79003 12.1847L2.63337 11.9353C1.97346 10.8849 1.62423 9.6692 1.62603 8.42868C1.62737 4.79535 4.58336 1.83936 8.21869 1.83936C9.97869 1.83936 11.6334 2.52602 12.8773 3.77136C13.4909 4.38241 13.9773 5.10906 14.3082 5.90928C14.6391 6.7095 14.8081 7.5674 14.8053 8.43335C14.804 12.0667 11.848 15.0233 8.21602 15.0233ZM13.824 2.82536C13.0895 2.08597 12.2155 1.49972 11.2527 1.10056C10.29 0.701403 9.25758 0.497283 8.21536 0.500027C3.84603 0.500027 0.288703 4.05669 0.28737 8.42801C0.285345 9.81918 0.650285 11.1863 1.34537 12.3913L0.220703 16.5L4.42336 15.3973C5.58594 16.0307 6.88875 16.3626 8.21269 16.3627H8.21602C12.5853 16.3627 16.1427 12.806 16.144 8.43401C16.1472 7.3922 15.9439 6.36008 15.5456 5.39737C15.1474 4.43466 14.5623 3.56047 13.824 2.82536Z" fill="#0D99FF"/>
</svg>
