<svg width="60" height="60" viewBox="0 0 60 60" fill="none" xmlns="http://www.w3.org/2000/svg">
<g filter="url(#filter0_d_23_381)">
<path d="M19.3322 42.8266L20.1025 43.2118C23.3123 45.1376 26.907 46.0363 30.5019 46.0363C41.7998 46.0363 51.0436 36.7925 51.0436 25.4946C51.0436 20.1024 48.8609 14.8386 45.0095 10.987C41.1579 7.13535 36.0223 4.95288 30.5019 4.95288C19.204 4.95288 9.96001 14.1966 10.0885 25.623C10.0885 29.4745 11.244 33.1978 13.1697 36.4073L13.6832 37.1777L11.6292 44.7525L19.3322 42.8266Z" fill="#00E676"/>
<path d="M47.1916 8.93282C42.8264 4.43941 36.7923 2 30.6298 2C17.5346 2 7.00689 12.656 7.13517 25.6229C7.13517 29.7313 8.29064 33.7114 10.2165 37.3061L6.87842 49.5027L19.3318 46.2931C22.7982 48.219 26.6497 49.1177 30.5015 49.1177C43.4684 49.1177 53.9961 38.4615 53.9961 25.4948C53.9961 19.2038 51.5567 13.2979 47.1917 8.93282H47.1916ZM30.6298 45.1378C27.1634 45.1378 23.697 44.2392 20.7441 42.4418L19.9738 42.0566L12.5275 43.9823L14.4532 36.6645L13.9397 35.894C8.29064 26.7787 10.9868 14.7102 20.2305 9.0611C29.4743 3.41222 41.4142 6.10838 47.0633 15.3521C52.7122 24.5959 50.016 36.5358 40.7724 42.1849C37.8193 44.1106 34.2247 45.1376 30.6298 45.1376V45.1378ZM41.9277 30.8871L40.5155 30.2451C40.5155 30.2451 38.4615 29.3464 37.1776 28.7044C37.0491 28.7044 36.9208 28.576 36.7923 28.576C36.4071 28.576 36.1504 28.7044 35.8936 28.8329C35.8936 28.8329 35.7653 28.9612 33.9679 31.0154C33.8394 31.2721 33.5827 31.4006 33.3259 31.4006H33.1975C33.0692 31.4006 32.8124 31.2721 32.684 31.1439L32.042 30.8871C30.6298 30.2451 29.346 29.4747 28.3188 28.4477C28.0621 28.1909 27.6769 27.9342 27.4201 27.6774C26.5214 26.7787 25.6227 25.7515 24.9809 24.5961L24.8524 24.3393C24.7241 24.2109 24.7241 24.0826 24.5957 23.8258C24.5957 23.5691 24.5957 23.3123 24.7241 23.1839C24.7241 23.1839 25.2376 22.5419 25.6227 22.1568C25.8796 21.8999 26.0079 21.5149 26.2646 21.2581C26.5214 20.8729 26.6499 20.3594 26.5214 19.9742C26.3931 19.3322 24.8524 15.8658 24.4674 15.0956C24.2105 14.7103 23.9539 14.5821 23.5687 14.4536H22.1565C21.8995 14.4536 21.643 14.5821 21.386 14.5821L21.2576 14.7103C21.0008 14.8388 20.7441 15.0956 20.4873 15.2238C20.2305 15.4808 20.1021 15.7374 19.8453 15.9943C18.9466 17.1498 18.4331 18.562 18.4331 19.9742C18.4331 21.0012 18.6899 22.0284 19.0751 22.9271L19.2035 23.3123C20.359 25.7515 21.8995 27.9342 23.9539 29.8599L24.4674 30.3734C24.8524 30.7586 25.2376 31.0154 25.4944 31.4004C28.1906 33.7115 31.2717 35.3805 34.7381 36.2792C35.1234 36.4075 35.6369 36.4075 36.0221 36.536H37.3058C37.9478 36.536 38.7181 36.2792 39.2317 36.0225C39.6168 35.7657 39.8735 35.7657 40.1303 35.509L40.3872 35.252C40.644 34.9953 40.9007 34.867 41.1575 34.6103C41.4142 34.3535 41.671 34.0968 41.7994 33.8398C42.0562 33.3263 42.1845 32.6844 42.3129 32.0426V31.1439C42.3129 31.1439 42.1845 31.0154 41.9277 30.8871Z" fill="white"/>
</g>
<defs>
<filter id="filter0_d_23_381" x="0.878418" y="0" width="59.1177" height="59.5027" filterUnits="userSpaceOnUse" color-interpolation-filters="sRGB">
<feFlood flood-opacity="0" result="BackgroundImageFix"/>
<feColorMatrix in="SourceAlpha" type="matrix" values="0 0 0 0 0 0 0 0 0 0 0 0 0 0 0 0 0 0 127 0" result="hardAlpha"/>
<feOffset dy="4"/>
<feGaussianBlur stdDeviation="3"/>
<feComposite in2="hardAlpha" operator="out"/>
<feColorMatrix type="matrix" values="0 0 0 0 0 0 0 0 0 0 0 0 0 0 0 0 0 0 0.25 0"/>
<feBlend mode="normal" in2="BackgroundImageFix" result="effect1_dropShadow_23_381"/>
<feBlend mode="normal" in="SourceGraphic" in2="effect1_dropShadow_23_381" result="shape"/>
</filter>
</defs>
</svg>
