<svg width="16" height="17" viewBox="0 0 16 17" fill="none" xmlns="http://www.w3.org/2000/svg">
<path fill-rule="evenodd" clip-rule="evenodd" d="M11.61 10.088C11.4113 9.98868 10.4373 9.51001 10.256 9.44335C10.0746 9.37735 9.94265 9.34468 9.80998 9.54335C9.67798 9.74068 9.29865 10.1873 9.18332 10.3193C9.06732 10.452 8.95199 10.468 8.75399 10.3693C8.55599 10.2693 7.91732 10.0607 7.16066 9.38601C6.57199 8.86068 6.17399 8.21202 6.05866 8.01335C5.94332 7.81535 6.04599 7.70801 6.14532 7.60935C6.23466 7.52068 6.34332 7.37802 6.44266 7.26268C6.54199 7.14668 6.57466 7.06402 6.64066 6.93135C6.70732 6.79935 6.67399 6.68402 6.62399 6.58468C6.57466 6.48535 6.17866 5.51002 6.01332 5.11335C5.85266 4.72735 5.68932 4.78002 5.56799 4.77335C5.45199 4.76802 5.31999 4.76669 5.18799 4.76669C5.05599 4.76669 4.84133 4.81602 4.65999 5.01469C4.47799 5.21269 3.96666 5.69202 3.96666 6.66735C3.96666 7.64202 4.67599 8.58401 4.77533 8.71668C4.87466 8.84868 6.17199 10.85 8.15932 11.708C8.63265 11.912 9.00132 12.034 9.28865 12.1247C9.76332 12.276 10.1953 12.2547 10.5366 12.2033C10.9166 12.1467 11.7086 11.724 11.874 11.2613C12.0386 10.7987 12.0386 10.402 11.9893 10.3193C11.94 10.2367 11.8086 10.1873 11.61 10.088ZM7.99532 15.0233H7.99265C6.81228 15.0236 5.65357 14.7062 4.63799 14.1047L4.39799 13.962L1.90333 14.6167L2.56933 12.1847L2.41266 11.9353C1.75276 10.8849 1.40353 9.6692 1.40533 8.42868C1.40666 4.79535 4.36266 1.83936 7.99799 1.83936C9.75798 1.83936 11.4126 2.52602 12.6566 3.77136C13.2702 4.38241 13.7566 5.10906 14.0875 5.90928C14.4184 6.7095 14.5874 7.5674 14.5846 8.43335C14.5833 12.0667 11.6273 15.0233 7.99532 15.0233ZM13.6033 2.82536C12.8688 2.08597 11.9948 1.49972 11.032 1.10056C10.0693 0.701403 9.03687 0.497283 7.99465 0.500027C3.62533 0.500027 0.0679999 4.05669 0.0666666 8.42801C0.0646419 9.81918 0.429582 11.1863 1.12466 12.3913L0 16.5L4.20266 15.3973C5.36524 16.0307 6.66805 16.3626 7.99199 16.3627H7.99532C12.3646 16.3627 15.922 12.806 15.9233 8.43401C15.9265 7.3922 15.7231 6.36008 15.3249 5.39737C14.9267 4.43466 14.3416 3.56047 13.6033 2.82536Z" fill="black"/>
</svg>
