<svg width="48" height="30" viewBox="0 0 48 30" fill="none" xmlns="http://www.w3.org/2000/svg">
<path d="M46 21.2368V21.2389C46 24.842 42.8141 28 38.568 28H9.432C5.18585 28 2 24.842 2 21.2389C2 17.9992 4.57409 15.1279 8.23507 14.5893L10.3838 14.2732L9.89206 12.1578C9.86533 12.0428 9.848 11.895 9.848 11.6593C9.848 9.84094 11.4817 8.10619 13.824 8.10619C14.8304 8.10619 15.7617 8.45846 16.4451 9.00055L18.4117 10.5604L19.4929 8.29515C20.3921 6.41129 21.2955 4.88822 22.6029 3.80505C23.8488 2.77289 25.638 2 28.584 2C32.1115 2 34.5227 3.24404 36.0728 4.99148C37.6569 6.77723 38.488 9.25764 38.488 11.9248C38.488 12.1886 38.4863 12.3529 38.4737 12.4807L38.2947 14.295L40.0847 14.6407C41.8031 14.9726 43.3144 15.8345 44.3803 17.0455C45.4431 18.253 46.0016 19.7341 46 21.2368Z" stroke="#333333" stroke-width="4"/>
</svg>
