<svg width="27" height="39" viewBox="0 0 27 39" fill="none" xmlns="http://www.w3.org/2000/svg">
<path d="M7.71429 37.05C7.71429 38.1225 8.58214 39 9.64286 39H17.3571C18.4179 39 19.2857 38.1225 19.2857 37.05V35.1H7.71429V37.05ZM13.5 0C6.05571 0 0 6.123 0 13.65C0 18.291 2.295 22.3665 5.78571 24.843V29.25C5.78571 30.3225 6.65357 31.2 7.71429 31.2H19.2857C20.3464 31.2 21.2143 30.3225 21.2143 29.25V24.843C24.705 22.3665 27 18.291 27 13.65C27 6.123 20.9443 0 13.5 0ZM17.3571 22.815V27.3H9.64286V22.815C6.71143 20.7285 3.85714 18.5835 3.85714 13.65C3.85714 8.268 8.17714 3.9 13.5 3.9C18.8229 3.9 23.1429 8.268 23.1429 13.65C23.1429 18.5055 20.2307 20.7675 17.3571 22.815Z" fill="#333333"/>
</svg>
